<mxfile host="app.diagrams.net" modified="2021-12-13T00:44:42.943Z" agent="5.0 (Windows)" etag="TtEzLr4tsA83MyKRmhu0" version="15.9.4" type="github">
  <diagram id="qQ9XFI0M0UmNDf1xRuUl" name="Page-1">
    <mxGraphModel dx="1964" dy="1069" grid="1" gridSize="15" guides="1" tooltips="1" connect="1" arrows="1" fold="1" page="1" pageScale="1" pageWidth="2336" pageHeight="1654" background="none" math="0" shadow="0">
      <root>
        <mxCell id="0" />
        <mxCell id="1" parent="0" />
        <mxCell id="EM4_8DvXyZHyaajdwQxu-10" style="edgeStyle=orthogonalEdgeStyle;rounded=0;orthogonalLoop=1;jettySize=auto;html=1;" edge="1" parent="1" source="EM4_8DvXyZHyaajdwQxu-5" target="EM4_8DvXyZHyaajdwQxu-9">
          <mxGeometry relative="1" as="geometry" />
        </mxCell>
        <mxCell id="EM4_8DvXyZHyaajdwQxu-11" style="edgeStyle=orthogonalEdgeStyle;rounded=0;orthogonalLoop=1;jettySize=auto;html=1;entryX=0.5;entryY=0;entryDx=0;entryDy=0;" edge="1" parent="1" source="EM4_8DvXyZHyaajdwQxu-5" target="EM4_8DvXyZHyaajdwQxu-8">
          <mxGeometry relative="1" as="geometry" />
        </mxCell>
        <mxCell id="EM4_8DvXyZHyaajdwQxu-5" value="HOME" style="rounded=1;whiteSpace=wrap;html=1;fillColor=#1ba1e2;strokeColor=#006EAF;fontColor=#ffffff;" vertex="1" parent="1">
          <mxGeometry x="975" y="285" width="120" height="60" as="geometry" />
        </mxCell>
        <mxCell id="EM4_8DvXyZHyaajdwQxu-14" style="edgeStyle=orthogonalEdgeStyle;rounded=0;orthogonalLoop=1;jettySize=auto;html=1;" edge="1" parent="1" source="EM4_8DvXyZHyaajdwQxu-8" target="EM4_8DvXyZHyaajdwQxu-13">
          <mxGeometry relative="1" as="geometry" />
        </mxCell>
        <mxCell id="EM4_8DvXyZHyaajdwQxu-8" value="Sign-up/Login" style="ellipse;whiteSpace=wrap;html=1;rounded=1;shadow=0;glass=0;sketch=0;strokeWidth=1;" vertex="1" parent="1">
          <mxGeometry x="1050" y="375" width="90" height="45" as="geometry" />
        </mxCell>
        <mxCell id="EM4_8DvXyZHyaajdwQxu-33" style="edgeStyle=orthogonalEdgeStyle;rounded=0;orthogonalLoop=1;jettySize=auto;html=1;fontFamily=Lucida Console;fontSize=10;" edge="1" parent="1" source="EM4_8DvXyZHyaajdwQxu-9" target="EM4_8DvXyZHyaajdwQxu-31">
          <mxGeometry relative="1" as="geometry" />
        </mxCell>
        <mxCell id="EM4_8DvXyZHyaajdwQxu-9" value="Continue as Guest" style="ellipse;whiteSpace=wrap;html=1;rounded=1;shadow=0;glass=0;sketch=0;strokeWidth=1;" vertex="1" parent="1">
          <mxGeometry x="930" y="375" width="90" height="45" as="geometry" />
        </mxCell>
        <mxCell id="EM4_8DvXyZHyaajdwQxu-18" style="edgeStyle=orthogonalEdgeStyle;rounded=0;orthogonalLoop=1;jettySize=auto;html=1;" edge="1" parent="1" source="EM4_8DvXyZHyaajdwQxu-13" target="EM4_8DvXyZHyaajdwQxu-17">
          <mxGeometry relative="1" as="geometry">
            <Array as="points">
              <mxPoint x="1342" y="480" />
            </Array>
          </mxGeometry>
        </mxCell>
        <mxCell id="EM4_8DvXyZHyaajdwQxu-19" value="NO" style="edgeLabel;html=1;align=center;verticalAlign=middle;resizable=0;points=[];fontFamily=Lucida Console;fontSize=18;fontStyle=1" vertex="1" connectable="0" parent="EM4_8DvXyZHyaajdwQxu-18">
          <mxGeometry x="-0.0287" relative="1" as="geometry">
            <mxPoint as="offset" />
          </mxGeometry>
        </mxCell>
        <mxCell id="EM4_8DvXyZHyaajdwQxu-24" style="edgeStyle=orthogonalEdgeStyle;rounded=0;orthogonalLoop=1;jettySize=auto;html=1;exitX=0;exitY=0.5;exitDx=0;exitDy=0;fontFamily=Lucida Console;fontSize=18;" edge="1" parent="1" source="EM4_8DvXyZHyaajdwQxu-13" target="EM4_8DvXyZHyaajdwQxu-22">
          <mxGeometry relative="1" as="geometry" />
        </mxCell>
        <mxCell id="EM4_8DvXyZHyaajdwQxu-26" value="&lt;b&gt;YES&lt;/b&gt;" style="edgeLabel;html=1;align=center;verticalAlign=middle;resizable=0;points=[];fontSize=18;fontFamily=Lucida Console;" vertex="1" connectable="0" parent="EM4_8DvXyZHyaajdwQxu-24">
          <mxGeometry x="0.082" relative="1" as="geometry">
            <mxPoint as="offset" />
          </mxGeometry>
        </mxCell>
        <mxCell id="EM4_8DvXyZHyaajdwQxu-13" value="Already has account?" style="rhombus;whiteSpace=wrap;html=1;rounded=1;shadow=0;glass=0;sketch=0;strokeColor=#000000;strokeWidth=2;gradientColor=none;" vertex="1" parent="1">
          <mxGeometry x="1168" y="435" width="137" height="90" as="geometry" />
        </mxCell>
        <mxCell id="EM4_8DvXyZHyaajdwQxu-21" style="edgeStyle=orthogonalEdgeStyle;rounded=0;orthogonalLoop=1;jettySize=auto;html=1;entryX=0.5;entryY=0;entryDx=0;entryDy=0;fontFamily=Lucida Console;fontSize=18;" edge="1" parent="1" source="EM4_8DvXyZHyaajdwQxu-17" target="EM4_8DvXyZHyaajdwQxu-20">
          <mxGeometry relative="1" as="geometry" />
        </mxCell>
        <mxCell id="EM4_8DvXyZHyaajdwQxu-17" value="Enter Email Address" style="rounded=1;whiteSpace=wrap;html=1;shadow=0;glass=0;sketch=0;strokeColor=#001DBC;strokeWidth=2;fillColor=#0050ef;fontColor=#ffffff;" vertex="1" parent="1">
          <mxGeometry x="1290" y="585" width="105" height="45" as="geometry" />
        </mxCell>
        <mxCell id="EM4_8DvXyZHyaajdwQxu-28" style="edgeStyle=orthogonalEdgeStyle;rounded=0;orthogonalLoop=1;jettySize=auto;html=1;entryX=1;entryY=0.5;entryDx=0;entryDy=0;fontFamily=Lucida Console;fontSize=18;" edge="1" parent="1" source="EM4_8DvXyZHyaajdwQxu-20" target="EM4_8DvXyZHyaajdwQxu-27">
          <mxGeometry relative="1" as="geometry" />
        </mxCell>
        <mxCell id="EM4_8DvXyZHyaajdwQxu-29" value="&lt;font style=&quot;font-size: 10px;&quot;&gt;VERFICATION&lt;/font&gt;" style="edgeLabel;html=1;align=center;verticalAlign=middle;resizable=0;points=[];fontSize=10;fontFamily=Lucida Console;" vertex="1" connectable="0" parent="EM4_8DvXyZHyaajdwQxu-28">
          <mxGeometry x="0.1737" y="1" relative="1" as="geometry">
            <mxPoint x="3" y="-39" as="offset" />
          </mxGeometry>
        </mxCell>
        <mxCell id="EM4_8DvXyZHyaajdwQxu-20" value="Create Password" style="rounded=1;whiteSpace=wrap;html=1;shadow=0;glass=0;sketch=0;strokeColor=#001DBC;strokeWidth=2;fillColor=#0050ef;fontColor=#ffffff;" vertex="1" parent="1">
          <mxGeometry x="1290" y="660" width="105" height="45" as="geometry" />
        </mxCell>
        <mxCell id="EM4_8DvXyZHyaajdwQxu-30" style="edgeStyle=orthogonalEdgeStyle;rounded=0;orthogonalLoop=1;jettySize=auto;html=1;entryX=0;entryY=0.5;entryDx=0;entryDy=0;fontFamily=Lucida Console;fontSize=10;" edge="1" parent="1" source="EM4_8DvXyZHyaajdwQxu-22" target="EM4_8DvXyZHyaajdwQxu-27">
          <mxGeometry relative="1" as="geometry" />
        </mxCell>
        <mxCell id="EM4_8DvXyZHyaajdwQxu-22" value="&lt;div&gt;Enter Email Address&lt;/div&gt;" style="rounded=1;whiteSpace=wrap;html=1;shadow=0;glass=0;sketch=0;strokeColor=#000000;strokeWidth=2;gradientColor=none;" vertex="1" parent="1">
          <mxGeometry x="1080" y="585" width="105" height="45" as="geometry" />
        </mxCell>
        <mxCell id="EM4_8DvXyZHyaajdwQxu-32" style="edgeStyle=orthogonalEdgeStyle;rounded=0;orthogonalLoop=1;jettySize=auto;html=1;entryX=1;entryY=0.5;entryDx=0;entryDy=0;fontFamily=Lucida Console;fontSize=10;" edge="1" parent="1" source="EM4_8DvXyZHyaajdwQxu-27" target="EM4_8DvXyZHyaajdwQxu-31">
          <mxGeometry relative="1" as="geometry">
            <Array as="points">
              <mxPoint x="1238" y="870" />
            </Array>
          </mxGeometry>
        </mxCell>
        <mxCell id="EM4_8DvXyZHyaajdwQxu-27" value="Enter Password" style="rounded=1;whiteSpace=wrap;html=1;shadow=0;glass=0;sketch=0;strokeColor=#000000;strokeWidth=2;gradientColor=none;" vertex="1" parent="1">
          <mxGeometry x="1185" y="750" width="105" height="45" as="geometry" />
        </mxCell>
        <mxCell id="EM4_8DvXyZHyaajdwQxu-41" style="edgeStyle=orthogonalEdgeStyle;rounded=0;orthogonalLoop=1;jettySize=auto;html=1;fontFamily=Lucida Console;fontSize=10;" edge="1" parent="1" source="EM4_8DvXyZHyaajdwQxu-31" target="EM4_8DvXyZHyaajdwQxu-37">
          <mxGeometry relative="1" as="geometry" />
        </mxCell>
        <mxCell id="EM4_8DvXyZHyaajdwQxu-42" style="edgeStyle=orthogonalEdgeStyle;rounded=0;orthogonalLoop=1;jettySize=auto;html=1;fontFamily=Lucida Console;fontSize=10;" edge="1" parent="1" target="EM4_8DvXyZHyaajdwQxu-39">
          <mxGeometry relative="1" as="geometry">
            <mxPoint x="975" y="930" as="sourcePoint" />
            <Array as="points">
              <mxPoint x="1110" y="930" />
            </Array>
          </mxGeometry>
        </mxCell>
        <mxCell id="EM4_8DvXyZHyaajdwQxu-43" style="edgeStyle=orthogonalEdgeStyle;rounded=0;orthogonalLoop=1;jettySize=auto;html=1;entryX=0.5;entryY=0;entryDx=0;entryDy=0;fontFamily=Lucida Console;fontSize=10;" edge="1" parent="1" source="EM4_8DvXyZHyaajdwQxu-31" target="EM4_8DvXyZHyaajdwQxu-38">
          <mxGeometry relative="1" as="geometry">
            <Array as="points">
              <mxPoint x="975" y="930" />
              <mxPoint x="1245" y="930" />
            </Array>
          </mxGeometry>
        </mxCell>
        <mxCell id="EM4_8DvXyZHyaajdwQxu-44" style="edgeStyle=orthogonalEdgeStyle;rounded=0;orthogonalLoop=1;jettySize=auto;html=1;fontFamily=Lucida Console;fontSize=10;" edge="1" parent="1" source="EM4_8DvXyZHyaajdwQxu-31" target="EM4_8DvXyZHyaajdwQxu-35">
          <mxGeometry relative="1" as="geometry">
            <Array as="points">
              <mxPoint x="975" y="930" />
              <mxPoint x="1380" y="930" />
            </Array>
          </mxGeometry>
        </mxCell>
        <mxCell id="EM4_8DvXyZHyaajdwQxu-60" style="edgeStyle=orthogonalEdgeStyle;rounded=0;orthogonalLoop=1;jettySize=auto;html=1;fontFamily=Lucida Console;fontSize=11;" edge="1" parent="1" source="EM4_8DvXyZHyaajdwQxu-31" target="EM4_8DvXyZHyaajdwQxu-59">
          <mxGeometry relative="1" as="geometry">
            <Array as="points">
              <mxPoint x="975" y="930" />
              <mxPoint x="1500" y="930" />
            </Array>
          </mxGeometry>
        </mxCell>
        <mxCell id="EM4_8DvXyZHyaajdwQxu-31" value="WELCOME PAGE" style="rounded=1;whiteSpace=wrap;html=1;fillColor=#1ba1e2;strokeColor=#006EAF;fontColor=#ffffff;" vertex="1" parent="1">
          <mxGeometry x="915" y="840" width="120" height="60" as="geometry" />
        </mxCell>
        <mxCell id="EM4_8DvXyZHyaajdwQxu-65" style="edgeStyle=orthogonalEdgeStyle;rounded=0;orthogonalLoop=1;jettySize=auto;html=1;fontFamily=Lucida Console;fontSize=11;" edge="1" parent="1" source="EM4_8DvXyZHyaajdwQxu-35" target="EM4_8DvXyZHyaajdwQxu-62">
          <mxGeometry relative="1" as="geometry" />
        </mxCell>
        <mxCell id="EM4_8DvXyZHyaajdwQxu-66" style="edgeStyle=orthogonalEdgeStyle;rounded=0;orthogonalLoop=1;jettySize=auto;html=1;entryX=0.5;entryY=0;entryDx=0;entryDy=0;fontFamily=Lucida Console;fontSize=11;" edge="1" parent="1" source="EM4_8DvXyZHyaajdwQxu-35" target="EM4_8DvXyZHyaajdwQxu-63">
          <mxGeometry relative="1" as="geometry" />
        </mxCell>
        <mxCell id="EM4_8DvXyZHyaajdwQxu-35" value="COMMENTS" style="rounded=1;whiteSpace=wrap;html=1;fillColor=#1ba1e2;strokeColor=#006EAF;fontColor=#ffffff;strokeWidth=2;" vertex="1" parent="1">
          <mxGeometry x="1320" y="960" width="120" height="45" as="geometry" />
        </mxCell>
        <mxCell id="EM4_8DvXyZHyaajdwQxu-47" style="edgeStyle=orthogonalEdgeStyle;rounded=0;orthogonalLoop=1;jettySize=auto;html=1;fontFamily=Lucida Console;fontSize=10;" edge="1" parent="1" source="EM4_8DvXyZHyaajdwQxu-37" target="EM4_8DvXyZHyaajdwQxu-46">
          <mxGeometry relative="1" as="geometry" />
        </mxCell>
        <mxCell id="EM4_8DvXyZHyaajdwQxu-37" value="APPLICATIONS" style="rounded=1;whiteSpace=wrap;html=1;fillColor=#1ba1e2;strokeColor=#006EAF;fontColor=#ffffff;strokeWidth=2;" vertex="1" parent="1">
          <mxGeometry x="915" y="960" width="120" height="45" as="geometry" />
        </mxCell>
        <mxCell id="EM4_8DvXyZHyaajdwQxu-38" value="ABOUT" style="rounded=1;whiteSpace=wrap;html=1;fillColor=#1ba1e2;strokeColor=#006EAF;fontColor=#ffffff;strokeWidth=2;" vertex="1" parent="1">
          <mxGeometry x="1185" y="960" width="120" height="45" as="geometry" />
        </mxCell>
        <mxCell id="EM4_8DvXyZHyaajdwQxu-39" value="INFORMATION" style="rounded=1;whiteSpace=wrap;html=1;fillColor=#1ba1e2;strokeColor=#006EAF;fontColor=#ffffff;strokeWidth=2;" vertex="1" parent="1">
          <mxGeometry x="1050" y="960" width="120" height="45" as="geometry" />
        </mxCell>
        <mxCell id="EM4_8DvXyZHyaajdwQxu-48" style="edgeStyle=orthogonalEdgeStyle;rounded=0;orthogonalLoop=1;jettySize=auto;html=1;fontFamily=Lucida Console;fontSize=10;entryX=0;entryY=0.5;entryDx=0;entryDy=0;" edge="1" parent="1" source="EM4_8DvXyZHyaajdwQxu-46" target="EM4_8DvXyZHyaajdwQxu-31">
          <mxGeometry relative="1" as="geometry">
            <mxPoint x="795" y="855" as="targetPoint" />
            <Array as="points">
              <mxPoint x="885" y="1095" />
              <mxPoint x="885" y="870" />
            </Array>
          </mxGeometry>
        </mxCell>
        <mxCell id="EM4_8DvXyZHyaajdwQxu-49" value="NO" style="edgeLabel;html=1;align=center;verticalAlign=middle;resizable=0;points=[];fontSize=18;fontFamily=Lucida Console;fontStyle=1" vertex="1" connectable="0" parent="EM4_8DvXyZHyaajdwQxu-48">
          <mxGeometry x="0.1629" relative="1" as="geometry">
            <mxPoint as="offset" />
          </mxGeometry>
        </mxCell>
        <mxCell id="EM4_8DvXyZHyaajdwQxu-52" style="edgeStyle=orthogonalEdgeStyle;rounded=0;orthogonalLoop=1;jettySize=auto;html=1;fontFamily=Lucida Console;fontSize=14;" edge="1" parent="1" source="EM4_8DvXyZHyaajdwQxu-46" target="EM4_8DvXyZHyaajdwQxu-50">
          <mxGeometry relative="1" as="geometry" />
        </mxCell>
        <mxCell id="EM4_8DvXyZHyaajdwQxu-53" style="edgeStyle=orthogonalEdgeStyle;rounded=0;orthogonalLoop=1;jettySize=auto;html=1;fontFamily=Lucida Console;fontSize=14;" edge="1" parent="1" source="EM4_8DvXyZHyaajdwQxu-46" target="EM4_8DvXyZHyaajdwQxu-51">
          <mxGeometry relative="1" as="geometry" />
        </mxCell>
        <mxCell id="EM4_8DvXyZHyaajdwQxu-56" value="YES" style="edgeLabel;html=1;align=center;verticalAlign=middle;resizable=0;points=[];fontSize=14;fontFamily=Lucida Console;fontStyle=1" vertex="1" connectable="0" parent="EM4_8DvXyZHyaajdwQxu-53">
          <mxGeometry x="-0.5259" relative="1" as="geometry">
            <mxPoint as="offset" />
          </mxGeometry>
        </mxCell>
        <mxCell id="EM4_8DvXyZHyaajdwQxu-46" value="Install Applications and logged in?" style="rhombus;whiteSpace=wrap;html=1;rounded=1;shadow=0;glass=0;sketch=0;strokeColor=#000000;strokeWidth=2;gradientColor=none;fontSize=11;" vertex="1" parent="1">
          <mxGeometry x="900" y="1035" width="150" height="105" as="geometry" />
        </mxCell>
        <mxCell id="EM4_8DvXyZHyaajdwQxu-57" style="edgeStyle=orthogonalEdgeStyle;rounded=0;orthogonalLoop=1;jettySize=auto;html=1;fontFamily=Lucida Console;fontSize=14;entryX=0;entryY=0.5;entryDx=0;entryDy=0;" edge="1" parent="1" source="EM4_8DvXyZHyaajdwQxu-50" target="EM4_8DvXyZHyaajdwQxu-31">
          <mxGeometry relative="1" as="geometry">
            <mxPoint x="885" y="870" as="targetPoint" />
            <Array as="points">
              <mxPoint x="765" y="1253" />
              <mxPoint x="765" y="870" />
            </Array>
          </mxGeometry>
        </mxCell>
        <mxCell id="EM4_8DvXyZHyaajdwQxu-50" value="Download UniiWeb" style="ellipse;whiteSpace=wrap;html=1;rounded=1;shadow=0;glass=0;sketch=0;fontFamily=Lucida Console;fontSize=14;strokeColor=#000000;strokeWidth=2;gradientColor=none;" vertex="1" parent="1">
          <mxGeometry x="870" y="1230" width="96" height="45" as="geometry" />
        </mxCell>
        <mxCell id="EM4_8DvXyZHyaajdwQxu-58" style="edgeStyle=orthogonalEdgeStyle;rounded=0;orthogonalLoop=1;jettySize=auto;html=1;fontFamily=Lucida Console;fontSize=14;" edge="1" parent="1" source="EM4_8DvXyZHyaajdwQxu-51">
          <mxGeometry relative="1" as="geometry">
            <mxPoint x="765" y="1252.5" as="targetPoint" />
            <Array as="points">
              <mxPoint x="1032" y="1380" />
              <mxPoint x="765" y="1380" />
            </Array>
          </mxGeometry>
        </mxCell>
        <mxCell id="EM4_8DvXyZHyaajdwQxu-51" value="Download UniiToll" style="ellipse;whiteSpace=wrap;html=1;rounded=1;shadow=0;glass=0;sketch=0;fontFamily=Lucida Console;fontSize=14;strokeColor=#000000;strokeWidth=2;gradientColor=none;" vertex="1" parent="1">
          <mxGeometry x="984" y="1230" width="96" height="45" as="geometry" />
        </mxCell>
        <mxCell id="EM4_8DvXyZHyaajdwQxu-61" style="edgeStyle=orthogonalEdgeStyle;rounded=0;orthogonalLoop=1;jettySize=auto;html=1;fontFamily=Lucida Console;fontSize=11;entryX=1;entryY=0.5;entryDx=0;entryDy=0;" edge="1" parent="1" source="EM4_8DvXyZHyaajdwQxu-59" target="EM4_8DvXyZHyaajdwQxu-5">
          <mxGeometry relative="1" as="geometry">
            <mxPoint x="1485" y="315" as="targetPoint" />
            <Array as="points">
              <mxPoint x="1590" y="983" />
              <mxPoint x="1590" y="315" />
            </Array>
          </mxGeometry>
        </mxCell>
        <mxCell id="EM4_8DvXyZHyaajdwQxu-59" value="LOG OUT" style="ellipse;whiteSpace=wrap;html=1;rounded=1;shadow=0;glass=0;sketch=0;strokeWidth=1;fillColor=#0050ef;fontColor=#ffffff;strokeColor=#001DBC;" vertex="1" parent="1">
          <mxGeometry x="1455" y="960" width="90" height="45" as="geometry" />
        </mxCell>
        <mxCell id="EM4_8DvXyZHyaajdwQxu-62" value="COMMENT SECTION" style="rounded=1;whiteSpace=wrap;html=1;fillColor=#cce5ff;strokeColor=#36393d;strokeWidth=2;" vertex="1" parent="1">
          <mxGeometry x="1290" y="1050" width="75" height="45" as="geometry" />
        </mxCell>
        <mxCell id="EM4_8DvXyZHyaajdwQxu-63" value="FEEDBACK" style="rounded=1;whiteSpace=wrap;html=1;fillColor=#cce5ff;strokeColor=#36393d;strokeWidth=2;" vertex="1" parent="1">
          <mxGeometry x="1395" y="1050" width="75" height="45" as="geometry" />
        </mxCell>
      </root>
    </mxGraphModel>
  </diagram>
</mxfile>
